PathFileType	4	(X/Y/Z)	C:\Users\Biomechanik\Documents\powerlifting_model\powerlifing_model\simulations\Athlete_03\25_03_31\Walking_01\c3dfile.trc
DataRate	CameraRate	NumFrames	NumMarkers	Units	OrigDataRate	OrigDataStartFrame	OrigNumFrames
200.0	200.0	4	53	mm	200.0	724	239	
Frame#	Time	GLAB			RFHD			LFHD			C7			T6			SPINMOL			SPINM2			SPINM3			T12			BELTOL			BELT2			BELT3			SACROL			SACR2			SACR3			LTHOL			LTH2			LTH3			LSHAOL			LSHA2			LSHA3			LHEE			LTOE			LM5			RTHOL			RTH2			RTH3			RSHAOL			RSHA2			RSHA3			RHEE			RTOE			RM5			STRN			XIPH			LACR			LUAOL			LUA2			LUA3			LLAOL			LLA2			LLA3			LWRR			LWRU			RACR			RUAOL			RUA2			RUA3			RLAOL			RLA2			RLA3			RWRR			RWRU			
		X1	Y1	Z1	X2	Y2	Z2	X3	Y3	Z3	X4	Y4	Z4	X5	Y5	Z5	X6	Y6	Z6	X7	Y7	Z7	X8	Y8	Z8	X9	Y9	Z9	X10	Y10	Z10	X11	Y11	Z11	X12	Y12	Z12	X13	Y13	Z13	X14	Y14	Z14	X15	Y15	Z15	X16	Y16	Z16	X17	Y17	Z17	X18	Y18	Z18	X19	Y19	Z19	X20	Y20	Z20	X21	Y21	Z21	X22	Y22	Z22	X23	Y23	Z23	X24	Y24	Z24	X25	Y25	Z25	X26	Y26	Z26	X27	Y27	Z27	X28	Y28	Z28	X29	Y29	Z29	X30	Y30	Z30	X31	Y31	Z31	X32	Y32	Z32	X33	Y33	Z33	X34	Y34	Z34	X35	Y35	Z35	X36	Y36	Z36	X37	Y37	Z37	X38	Y38	Z38	X39	Y39	Z39	X40	Y40	Z40	X41	Y41	Z41	X42	Y42	Z42	X43	Y43	Z43	X44	Y44	Z44	X45	Y45	Z45	X46	Y46	Z46	X47	Y47	Z47	X48	Y48	Z48	X49	Y49	Z49	X50	Y50	Z50	X51	Y51	Z51	X52	Y52	Z52	X53	Y53	Z53	
724	3.615	247.20012	1580.9766	306.14343	312.74261	1603.9044	356.10175	175.44513	1602.5128	352.7421	239.62299	1415.5891	528.52563	228.21359	1248.8075	588.93903	204.83545	1209.0897	597.54694	254.23312	1200.1892	603.35571	218.92992	1144.5154	593.69281	220.22571	1078.0706	568.93884	205.29013	1043.7078	601.30255	255.69156	1040.9214	600.37329	226.01166	981.34393	606.52441	208.91489	933.0072	595.59863	259.64725	929.90344	588.0647	232.9599	871.54114	604.70508	35.752026	669.39771	564.23102	78.235619	624.6214	615.14575	49.62487	611.26276	577.11182	36.868916	374.32285	709.521	58.775162	357.58847	784.08008	49.678886	325.7587	745.16876	149.26778	236.18349	896.763	152.48058	45.837811	818.10046	53.114319	60.584492	854.81006	411.39633	658.75568	420.01901	418.13348	631.13263	345.75607	403.16992	607.92957	387.82224	406.4397	327.98969	325.51752	401.83188	264.90698	279.09055	393.07443	267.56494	327.6261	287.76056	53.344799	326.8653	290.44037	56.667458	115.2114	391.61517	36.374207	162.44324	239.75238	1312.1133	357.87936	232.82137	1169.1611	341.39267	66.805969	1382.8895	447.16614	-40.335041	1237.0796	432.78668	-63.8396	1175.6693	436.26413	-39.571964	1184.9756	392.89172	-95.259827	991.16559	339.49414	-80.288002	913.59143	343.30963	-91.143486	941.91785	303.27386	-84.45369	864.03961	234.32532	-16.3036	891.22363	205.18723	409.32782	1359.0653	447.80374	499.63901	1208.2671	486.03403	508.32343	1144.6656	470.71393	515.64099	1154.2206	520.86584	546.25403	934.23328	515.80615	581.89893	877.4834	473.33685	551.22534	871.29669	511.69211	571.80408	786.91595	486.45398	507.32291	767.25684	440.46497
725	3.62	248.39915	1581.8972	299.09213	313.9552	1604.8113	349.01529	176.65791	1603.4182	345.6922	240.85426	1416.421	521.48926	229.23978	1249.5908	581.80518	205.81441	1209.8923	590.37872	255.21075	1200.9572	596.16779	219.86514	1145.3076	586.50885	221.18393	1078.9045	561.81152	205.72803	1044.7012	594.05475	256.14322	1042.0085	593.30963	226.54967	982.37567	599.35931	209.53885	933.29675	588.24854	260.32471	930.51465	580.88538	233.87851	871.90503	597.12158	36.268364	668.38959	554.1076	78.772728	622.66162	604.15833	49.640236	610.05347	566.28625	36.08976	375.88275	697.96417	58.742992	360.2709	772.57465	49.104359	327.86548	734.28284	149.52905	242.03128	885.4151	152.32848	47.832253	814.27313	53.729923	64.745338	851.50568	412.83698	659.80701	412.72842	418.82443	631.89325	338.64206	404.42276	608.85156	380.81403	407.07925	328.46808	321.07068	401.80542	264.86084	275.32578	393.62152	268.04825	324.01849	287.57394	53.797157	326.49768	290.06708	55.153126	114.35392	391.4628	36.365582	162.30952	240.92825	1313.1495	350.78983	234.01421	1170.1177	334.33417	68.067085	1383.9524	439.97729	-39.025414	1238.0947	425.80743	-62.706009	1176.7456	429.50909	-38.133732	1185.6962	386.18524	-94.149658	991.31287	334.7085	-79.289398	913.78802	339.38403	-90.336563	941.60724	299.06909	-84.24025	862.86658	231.04581	-16.167654	889.41974	201.22029	410.45981	1359.9937	440.51233	500.83392	1208.9485	477.89502	509.1579	1145.3616	462.20795	516.9408	1154.7083	512.33478	546.93781	934.68097	506.36017	582.23541	878.0498	463.41141	551.76715	871.7569	501.92322	572.02228	787.43939	476.14291	507.25931	768.1571	430.4418
726	3.625	249.56146	1582.8276	292.06723	315.12863	1605.7286	341.96234	177.82997	1604.3451	338.66071	242.01923	1417.2844	514.49469	230.26164	1250.4039	574.71777	206.80672	1210.7153	583.2616	256.20517	1201.7618	589.02039	220.83423	1146.1254	579.36993	222.19641	1079.7571	554.72101	206.23247	1045.6827	586.88287	256.65964	1043.0775	586.30194	227.14804	983.39227	592.25702	210.255	933.63452	580.95367	261.08768	931.16089	573.73657	234.88907	872.32758	589.64221	36.729206	667.4043	543.88824	79.211212	620.71014	593.065	49.592812	608.87134	555.34161	35.289383	377.45834	686.0899	58.657829	362.96811	760.73596	48.510132	329.99689	723.07092	149.81743	247.84251	873.70801	152.08885	50.018726	809.93683	54.35593	69.196663	847.74988	414.21759	660.77533	405.5723	419.44559	632.46436	331.71555	405.58865	609.65833	373.98938	407.54236	328.85168	316.9382	401.74771	264.74188	271.84848	393.98184	268.45081	320.66113	287.3425	54.214233	326.14844	289.72995	53.781906	113.55911	391.29956	36.426048	162.19606	242.04253	1314.1995	343.74344	235.14821	1171.087	327.33322	69.271797	1385.0245	432.8493	-37.767426	1239.1095	418.90427	-61.61451	1177.8196	422.82767	-36.745533	1186.4233	379.56113	-93.051353	991.47369	329.98898	-78.288773	914.01044	335.53015	-89.539619	941.3125	294.94281	-84.033081	861.7146	227.87082	-16.052208	887.63	197.35114	411.5321	1360.9733	433.26172	502.01416	1209.7	469.76788	509.97693	1146.1351	453.70099	518.23419	1155.2572	503.79276	547.64545	935.19806	496.84885	582.57623	878.70825	453.38611	552.33325	872.29327	492.06747	572.25323	788.05536	465.7016	507.19214	769.15179	420.30545
727	3.63	250.68564	1583.7654	285.06903	316.26126	1606.6538	334.9426	178.95972	1605.2904	331.64841	243.12038	1418.1765	507.53815	231.2823	1251.245	567.67712	207.8156	1211.557	576.19611	257.21951	1202.6018	581.91418	221.84003	1146.9667	572.27722	223.26279	1080.6266	547.66736	206.8147	1046.6405	579.78253	257.25198	1044.1152	579.34308	227.81657	984.38123	585.21051	211.07127	934.01685	573.71375	261.94363	931.8382	566.61566	235.99911	872.8042	582.26453	37.135513	666.46552	533.58826	79.554825	618.79895	581.88519	49.493679	607.74146	544.29376	34.477299	379.04959	673.92133	58.52824	365.67316	748.58801	47.902893	332.14865	711.55188	150.13867	253.58453	861.67798	151.76033	52.383255	805.06274	54.979828	73.899323	843.49109	415.51233	661.65985	398.58405	419.99036	632.84784	325.0108	406.65067	610.35223	367.38101	407.84842	329.14911	313.10733	401.65555	264.56305	268.64352	394.17807	268.77927	317.54276	287.07196	54.599552	325.81384	289.43103	52.545792	112.82024	391.12723	36.535793	162.09457	243.09338	1315.2585	336.74042	236.22279	1172.0658	320.38617	70.416718	1386.097	425.78552	-36.562401	1240.1136	412.0809	-60.561081	1178.8809	416.22876	-35.410942	1187.1483	373.02063	-91.969254	991.64117	325.33118	-77.288788	914.25171	331.7399	-88.755836	941.02887	290.888	-83.833237	860.58398	224.78827	-15.955186	885.85388	193.57388	412.54611	1361.9958	426.04916	503.17807	1210.5135	461.65353	510.78201	1146.9791	445.1962	519.5191	1155.8617	495.24326	548.3786	935.77643	487.27475	582.92053	879.45026	443.26328	552.92322	872.89813	482.12772	572.49445	788.75659	455.13397	507.11893	770.23364	410.05768
